<svg id="Layer_1" data-name="Layer 1" xmlns="http://www.w3.org/2000/svg" viewBox="0 0 148.45 41.48"><defs><style>.cls-1{fill:#00003c;}</style></defs><g id="Layer_2" data-name="Layer 2"><g id="Layer_1-2" data-name="Layer 1-2"><g id="Layer_1-2-2" data-name="Layer 1-2-2"><path class="cls-1" d="M131.12,13.83V21h-3.71V14.34c0-2-1.16-3.26-2.86-3.26a3,3,0,0,0-3,3,.33.33,0,0,0,0,.14V21h-3.71V8h2.66l.14,2.21a5.3,5.3,0,0,1,4.79-2.46c3.48,0,5.72,2.38,5.72,6.09"/><path class="cls-1" d="M145,14.51a3.19,3.19,0,0,0-3-3.39h-.39a3.29,3.29,0,0,0-3.35,3.23h0a.49.49,0,0,0,0,.17,3.3,3.3,0,0,0,3.21,3.39h.14a3.2,3.2,0,0,0,3.34-3v-.34M148.45,8V20.17c0,3.8-2.55,6.63-7.14,6.63a9.71,9.71,0,0,1-6.17-1.8l1.56-2.63a9,9,0,0,0,4.36,1.19c2.21,0,3.68-1.28,3.68-3v-1a5.38,5.38,0,0,1-3.94,1.65c-3.59,0-6.25-2.92-6.25-6.77a6.44,6.44,0,0,1,6.1-6.76h.24a6,6,0,0,1,4.45,1.92L145.45,8Z"/><path class="cls-1" d="M76.73.53a37.1,37.1,0,0,1-3.55,10.18,37.72,37.72,0,0,1-6.35,7.89c-.79.81.49,2,1.28,1.2a39.6,39.6,0,0,0,6.61-8.26c.4-.71.76-1.43,1.09-2.17,0,3.34.07,6.69.26,10a.77.77,0,0,0,.22.54,4.81,4.81,0,0,1-.07,1c-.07.82.84,1,1.38.6a1,1,0,0,0,1.4-.18,1.11,1.11,0,0,0,.19-.43c.57-6.72.57-13.44.49-20.18,0-.83-2.79-1-3-.23"/><path class="cls-1" d="M110.92,4.83a2.91,2.91,0,0,0,3.39-2.31v0a2.91,2.91,0,0,0,0-.59.88.88,0,0,0-.9-.86h-.2c-1.59.24-2.79,2.31-1.48,3.58,1.16,1.14,3.4.46,3.12-1.34a2,2,0,0,0-1.47-1.63,2.14,2.14,0,0,0-2.18.88,1.92,1.92,0,0,0-.14,2.36,1.49,1.49,0,0,0,2.06,0,1.41,1.41,0,0,0,.15-2h0l-.14-.15a1.78,1.78,0,0,0-2.4.07l1.38,1.06c.06-.15.13-.3.19-.44a.92.92,0,0,0-.31-1.2.9.9,0,0,0-1.2.32c-.07.14-.13.29-.19.43A.89.89,0,1,0,112,4.09h0a.49.49,0,0,1-.08-.21.29.29,0,0,1,.07-.25c.18-.21.38.36.49.27s.07-.24.13-.31a.79.79,0,0,1,.22-.19c.19-.1.08,0,.28.1s0,0,.09,0a.28.28,0,0,1-.23-.07c-.27-.33.47-.63.71-.67l-1.11-.84a1.14,1.14,0,0,1-1,1.23.49.49,0,0,1-.17,0,.93.93,0,0,0-1.08.62.88.88,0,0,0,.61,1.07"/><path class="cls-1" d="M56.7,38.6c-.16.08-.08,0,0,0h0M19,16.75l.13.06a.31.31,0,0,1-.13-.06m3.1-6.25c0,.55-.65,1.15-1.16,1.39a12,12,0,0,1-2.19.66c-.4.09-1.13.29-1-.41l.06-.15c1-1.68,4.19-3,4.32-1.49m-1.67,1.66h0m43.25,2.73c-.33-2.3-1.36-6-3.73-5-1.1.47-.68,1.91-.67,2.83a16.64,16.64,0,0,1-.08,2c-.2,2.69-1.11,5.54-3,6a2.21,2.21,0,0,1-2-.38,3.33,3.33,0,0,1-.85-1.12A7.2,7.2,0,0,1,53,18c-.53-2.12-.08-3.42-.43-4.38A1.25,1.25,0,0,0,51,12.88a1.21,1.21,0,0,0-.59.43c-.54.73-.4,2.31-.53,3.18A11.27,11.27,0,0,1,49.32,19c-.57,1.36-1.66,2.33-3.09,1.5-.73-.42-1.7-2.86-1.77-3A12.38,12.38,0,0,1,44,16.3c-.29-.91-.53-1.84-.74-2.77A6.57,6.57,0,0,1,43,11c.12-1,.31-1.93.42-2.91A19.27,19.27,0,0,0,43.56,3c-.23-1.3-1.29-2.86-2.73-1.79-1.09.81-1,2.77-1,4a33.52,33.52,0,0,0,.46,5.39,11.65,11.65,0,0,1-.94,5.15A9,9,0,0,1,38,18.57v.06c0-.06,0,0-.11.12h0c-.22.26-.66.74-.81.43-.29-.05-.68-.94-.88-1.29a13.63,13.63,0,0,1-.82-4c-.11-1.34.46-2.26.84-3.53a19.08,19.08,0,0,0,.65-3C37,5.8,37.28,2.19,35,2.09c-2-.09-2,3.37-2.12,4.7Q32.73,8.41,32.7,10c0,1.14.21,2-.49,3a9.2,9.2,0,0,1-3.87,2.88,14.64,14.64,0,0,1-4,1.08,14.57,14.57,0,0,1-2.47.15c-3-.2-4.1-.89-4.42-2A8.55,8.55,0,0,0,23,13.49a3.56,3.56,0,0,0,1-4.63c-2.44-3.72-7.51-.42-8.66,2.6A6.53,6.53,0,0,0,18.89,20l0,0a6.19,6.19,0,0,0,2.07.48,16.69,16.69,0,0,0,12.1-4.74c.33,2.19,1.14,5.48,3.76,5.9s4-2.88,4.74-4.88c.68,2.2,1.65,5.1,3.89,6.18s4.71-.23,5.84-2.33a5,5,0,0,0,8.48.46c-.08,3.11.71,15.35-2.84,17.39A3.14,3.14,0,0,1,53.58,38c-.44-.45-.95-1.51.41-3.31,1.47-2,3-3.67,4-5.07a8,8,0,0,0,1-4L51.53,33.9a5.24,5.24,0,0,0-1.09,4,2.38,2.38,0,0,0,.25.9.87.87,0,0,0,.14.27,5.37,5.37,0,0,0,3.5,2.3c2.43.31,5.49-.3,7-2.84,2.89-4.68,3.07-18.48,2.32-23.68"/><path class="cls-1" d="M17.09,20.83c-1.15-.77-2.31-1.53-3.43-2.35l-.45-.34h-.05l-.26-.21-1-.81L10.64,16c-.26-.23-.53-.45-.79-.69a3.87,3.87,0,0,1-.4-.41l-.23-.26c.16.18-.06-.08-.07-.11A3.65,3.65,0,0,1,8.9,14h0a.06.06,0,0,1,0-.06l-.06-.21a.67.67,0,0,1,0-.2v-.24A1.58,1.58,0,0,1,9,12.94H9l.17-.3c.1-.17.21-.32.32-.48h0l.22-.27.51-.6a62,62,0,0,1,4.45-4.58A1.28,1.28,0,1,0,12.86,4.9h0A57.74,57.74,0,0,0,8.58,9.19c-1.32,1.5-2.83,3.24-2.12,5.39a9.56,9.56,0,0,0,2.81,4.23c.76.67,1.45,1.32,2.26,1.93,1.23.94,1.47,1.22,2.76,2.07,1.8,1.2,2.94.29,3.24-.28a1.29,1.29,0,0,0-.44-1.7"/><path class="cls-1" d="M7.85,24.34h.08M3.75,2.21c0,.12.07.24,0,0M7.86,24.34l-.1-.06a.57.57,0,0,1-.16-.15.16.16,0,0,1-.08-.1.36.36,0,0,1-.07-.1,2.9,2.9,0,0,1-.31-.54L7,23.14V23c-.1-.24-.18-.49-.26-.74-.18-.55-.32-1.11-.45-1.67S6,19.32,5.9,18.67a2.64,2.64,0,0,0-.08-.49v-.27h0v-.06h0a6.67,6.67,0,0,0-.13-1c-.16-1.47-.27-3-.35-4.42S5.19,9.48,5.19,8A8.92,8.92,0,0,0,6,6.29,8,8,0,0,0,6.25,1.8a2.63,2.63,0,0,0-1-1.56A1.4,1.4,0,0,0,3.33.69V.74A5.64,5.64,0,0,0,2.87,3c-.13,1.42-.18,2.85-.18,4.29a7.87,7.87,0,0,1-1,1c-.08.06-.28.21-.08.07l-.32.23L.62,9a1.24,1.24,0,0,0,1.25,2.15,6.76,6.76,0,0,0,.87-.56v.15c.1,3.17-.16,6.31.18,9.53a12.28,12.28,0,0,0,.92,3.52,5.11,5.11,0,0,0,1.89,2.63,2.76,2.76,0,0,0,.68.3c.63.18,2.17-.22,2.32-.87a1.28,1.28,0,0,0-.87-1.53"/><path class="cls-1" d="M90.82,7.85l-.31,3.68a3.47,3.47,0,0,0-1.31-.25,3.11,3.11,0,0,0-3.34,2.85,2,2,0,0,0,0,.35V21H82.15V8h3.09l.14,2.55a4.22,4.22,0,0,1,4.3-2.8,6.29,6.29,0,0,1,1.14.11"/><rect class="cls-1" x="110.38" y="8.46" width="3.71" height="13.03"/><polygon class="cls-1" points="107.61 8.46 101.57 21.52 98.77 21.52 92.82 8.46 96.84 8.46 100.33 16.73 103.7 8.46 107.61 8.46"/></g></g></g></svg>